<?xml version="1.0" standalone="no"?><!DOCTYPE svg PUBLIC "-//W3C//DTD SVG 1.1//EN" "http://www.w3.org/Graphics/SVG/1.1/DTD/svg11.dtd"><svg t="1704867934090" class="icon" viewBox="0 0 1024 1024" version="1.1" xmlns="http://www.w3.org/2000/svg" p-id="1044" xmlns:xlink="http://www.w3.org/1999/xlink" width="64" height="64"><path d="M514.1504 67.2768a447.7952 447.7952 0 1 0 447.7952 447.7952 448.3072 448.3072 0 0 0-447.7952-447.7952z m0 834.1504a386.3552 386.3552 0 1 1 386.3552-386.3552 386.816 386.816 0 0 1-386.3552 386.3552z" fill="#57576D" p-id="1045"></path><path d="M812.6976 551.7824l-128-185.4464a30.72 30.72 0 0 0-47.2064-4.096l-82.9952 84.48-58.8288-94.0032a30.72 30.72 0 0 0-48.9984-4.096l-215.9616 243.1488a30.72 30.72 0 1 0 46.08 40.96L465.408 419.84l130.8672 208.4352a30.72 30.72 0 1 0 52.0192-32.6656L588.288 500.224 655.36 431.8208l106.6496 154.8288a30.72 30.72 0 0 0 50.5856-34.8672z" fill="#57576D" p-id="1046"></path></svg>