<?xml version="1.0" standalone="no"?><!DOCTYPE svg PUBLIC "-//W3C//DTD SVG 1.1//EN" "http://www.w3.org/Graphics/SVG/1.1/DTD/svg11.dtd"><svg t="1719972606421" class="icon" viewBox="0 0 1024 1024" version="1.1" xmlns="http://www.w3.org/2000/svg" p-id="12154" data-spm-anchor-id="a313x.search_index.0.i32.22dc3a81iCFiru" xmlns:xlink="http://www.w3.org/1999/xlink" width="256" height="256"><path d="M512 23.272727C242.036364 23.272727 23.272727 242.036364 23.272727 512s218.763636 488.727273 488.727273 488.727273 488.727273-218.763636 488.727273-488.727273S781.963636 23.272727 512 23.272727z m360.727273 665.6s-425.890909 183.854545-439.854546 188.509091c-13.963636 4.654545-32.581818 13.963636-58.181818-18.618182C148.945455 574.836364 197.818182 256 197.818182 256c2.327273-20.945455 23.272727-23.272727 23.272727-23.272727s69.818182-13.963636 111.709091-23.272728c25.6 6.981818 23.272727 23.272727 23.272727 23.272728s6.981818 107.054545 104.727273 100.072727c86.109091-4.654545 83.781818-86.109091 81.454545-130.327273-2.327273-41.890909 18.618182-34.909091 18.618182-34.909091s97.745455-25.6 111.709091-23.272727c16.290909-6.981818 30.254545 0 34.909091 18.618182-20.945455 260.654545 144.290909 442.181818 181.527273 479.418182 16.290909 25.6-16.290909 46.545455-16.290909 46.545454z m-409.6-104.727272c20.945455-4.654545 30.254545-39.563636 20.945454-79.127273s-34.909091-65.163636-53.527272-60.509091c-20.945455 4.654545-30.254545 39.563636-20.945455 79.127273s32.581818 67.490909 53.527273 60.509091z m160.581818-34.909091c18.618182-4.654545 27.927273-37.236364 18.618182-72.145455-9.309091-34.909091-30.254545-60.509091-48.872728-55.854545-18.618182 4.654545-27.927273 37.236364-18.618181 72.145454s30.254545 58.181818 48.872727 55.854546z m109.381818-37.236364c-6.981818 0-16.290909 6.981818-18.618182 13.963636-25.6 165.236364-183.854545 223.418182-332.8 104.727273-6.981818-6.981818-27.927273-4.654545-27.927272 4.654546s11.636364 20.945455 20.945454 27.927272c230.4 165.236364 372.363636-62.836364 367.709091-139.636363 0-2.327273-2.327273-9.309091-9.309091-11.636364z" fill="#fad93e" p-id="12155" data-spm-anchor-id="a313x.search_index.0.i28.22dc3a81iCFiru" class=""></path></svg>